<svg width="155" height="62" viewBox="0 0 155 62" fill="none" xmlns="http://www.w3.org/2000/svg">
<path d="M21.3355 56.7491C19.7759 56.4509 18.4228 55.492 17.6235 54.1196C16.8276 52.7524 16.6582 51.1106 17.1595 49.6112L21.1018 35.454C17.8233 35.1609 14.8987 33.0312 13.6946 29.7596L11.0003 22.4251C10.7548 21.7559 11.0986 21.0138 11.7675 20.7665C11.8014 20.7529 11.8369 20.7427 11.8725 20.7326C12.5143 20.553 13.1917 20.8986 13.4254 21.534L16.118 28.8667C17.024 31.3285 19.3119 32.877 21.8114 32.9058L27.3423 13.0457L7.8776 17.9828C6.47203 18.3386 5.54571 19.6788 5.70659 21.1206L10.3992 58.1418C10.6024 59.9597 12.3636 61.1813 14.1366 60.7306L26.1822 57.6742L21.3355 56.7457V56.7491Z" fill="#FFC603"/>
<path d="M47.828 13.1559L43.1235 12.2816L43.9974 7.57498C44.3191 5.84514 45.9804 4.7049 47.7077 5.02512L52.4122 5.89935L51.5383 10.606C51.2166 12.3358 49.5553 13.4761 47.828 13.1559Z" fill="url(#paint0_linear_296_6202)"/>
<path d="M59.3519 9.76226L54.6475 8.88802L55.5213 4.18138C55.843 2.45154 57.5043 1.3113 59.2317 1.63152L63.9361 2.50575L63.0623 7.2124C62.7405 8.94224 61.0792 10.0825 59.3519 9.76226Z" fill="url(#paint1_linear_296_6202)"/>
<path d="M38.6086 5.5029L35.3267 4.89297L35.9363 1.6095C36.1344 0.540423 37.1624 -0.166083 38.2309 0.0338395L41.5129 0.643772L40.9032 3.92724C40.7051 4.99632 39.6772 5.70283 38.6086 5.5029Z" fill="url(#paint2_linear_296_6202)"/>
<path d="M64.2918 21.19C64.3358 19.7635 63.3367 18.5182 61.9362 18.2488L34.2379 12.9407C34.055 12.9051 33.8704 12.8882 33.6892 12.8882C32.4666 12.8882 31.3455 13.6641 30.9408 14.862L19.5099 50.3838C18.9239 52.117 20.0027 53.9688 21.7994 54.3145L59.0251 61.449C59.2182 61.4863 59.4095 61.5032 59.5975 61.5032C61.1894 61.5032 62.556 60.2359 62.6051 58.5772L64.2901 21.19H64.2918Z" fill="#09B782"/>
<path d="M34.7632 20.797L33.9063 28.5635C33.4102 33.0854 36.394 37.1821 40.8479 38.0953L45.4642 39.0407C45.5015 39.0475 45.5371 39.056 45.5726 39.0628C50.0095 39.9133 54.4193 37.194 55.6419 32.8296L57.7757 25.2156C57.9688 24.5294 57.5674 23.8161 56.8816 23.623C56.846 23.6128 56.8104 23.6044 56.7749 23.5976C56.1229 23.4722 55.4726 23.867 55.2897 24.5176L53.1559 32.1316C52.2957 35.2032 49.2119 37.1296 46.0705 36.5282C46.0417 36.5231 46.0112 36.5163 45.9824 36.5112L41.3661 35.5658C38.2264 34.922 36.1231 32.035 36.4736 28.8481L37.3305 21.0833C37.405 20.4107 36.9529 19.7991 36.2975 19.6737C36.262 19.6669 36.2247 19.6618 36.1891 19.6567C35.4796 19.5788 34.8428 20.0905 34.7632 20.7987V20.797Z" fill="#FDFDFD"/>
<path d="M141.653 32.1459C141.653 31.3898 141.804 30.7271 142.106 30.1579C142.418 29.5797 142.845 29.1349 143.387 28.8236C143.93 28.5122 144.553 28.3566 145.255 28.3566C146.145 28.3566 146.879 28.5701 147.457 28.997C148.044 29.4151 148.44 30.0155 148.644 30.7983H147.003C146.87 30.4336 146.656 30.149 146.363 29.9444C146.069 29.7398 145.7 29.6375 145.255 29.6375C144.633 29.6375 144.135 29.8599 143.761 30.3046C143.396 30.7405 143.214 31.3543 143.214 32.1459C143.214 32.9376 143.396 33.5558 143.761 34.0006C144.135 34.4453 144.633 34.6677 145.255 34.6677C146.136 34.6677 146.719 34.2808 147.003 33.5069H148.644C148.431 34.2541 148.031 34.8501 147.444 35.2948C146.857 35.7307 146.127 35.9486 145.255 35.9486C144.553 35.9486 143.93 35.793 143.387 35.4816C142.845 35.1614 142.418 34.7166 142.106 34.1473C141.804 33.5692 141.653 32.902 141.653 32.1459Z" fill="#FFC603"/>
<path d="M139.416 27.5026C139.14 27.5026 138.909 27.4092 138.722 27.2224C138.535 27.0356 138.442 26.8044 138.442 26.5286C138.442 26.2529 138.535 26.0216 138.722 25.8348C138.909 25.648 139.14 25.5546 139.416 25.5546C139.683 25.5546 139.91 25.648 140.096 25.8348C140.283 26.0216 140.377 26.2529 140.377 26.5286C140.377 26.8044 140.283 27.0356 140.096 27.2224C139.91 27.4092 139.683 27.5026 139.416 27.5026ZM140.163 28.4767V35.8285H138.642V28.4767H140.163Z" fill="#FFC603"/>
<path d="M136.645 35.8285H135.124L130.547 28.9036V35.8285H129.026V26.542H130.547L135.124 33.4535V26.542H136.645V35.8285Z" fill="#FFC603"/>
<path d="M123.706 35.9486C123.012 35.9486 122.385 35.793 121.825 35.4816C121.264 35.1614 120.824 34.7166 120.504 34.1473C120.184 33.5692 120.023 32.902 120.023 32.1459C120.023 31.3987 120.188 30.736 120.517 30.1579C120.846 29.5797 121.295 29.1349 121.865 28.8236C122.434 28.5122 123.07 28.3566 123.773 28.3566C124.475 28.3566 125.111 28.5122 125.681 28.8236C126.25 29.1349 126.699 29.5797 127.028 30.1579C127.358 30.736 127.522 31.3987 127.522 32.1459C127.522 32.8931 127.353 33.5558 127.015 34.134C126.677 34.7122 126.214 35.1614 125.627 35.4816C125.049 35.793 124.409 35.9486 123.706 35.9486ZM123.706 34.6277C124.097 34.6277 124.462 34.5343 124.8 34.3475C125.147 34.1607 125.427 33.8805 125.641 33.5069C125.854 33.1333 125.961 32.6796 125.961 32.1459C125.961 31.6122 125.859 31.163 125.654 30.7983C125.449 30.4247 125.178 30.1445 124.84 29.9577C124.502 29.7709 124.137 29.6775 123.746 29.6775C123.355 29.6775 122.99 29.7709 122.652 29.9577C122.323 30.1445 122.06 30.4247 121.865 30.7983C121.669 31.163 121.571 31.6122 121.571 32.1459C121.571 32.9376 121.771 33.5514 122.172 33.9872C122.581 34.4142 123.092 34.6277 123.706 34.6277Z" fill="#09B782"/>
<path d="M116.917 29.5441C117.139 29.1705 117.433 28.8814 117.798 28.6768C118.171 28.4633 118.612 28.3566 119.119 28.3566V29.931H118.732C118.136 29.931 117.682 30.0822 117.371 30.3847C117.068 30.6871 116.917 31.2119 116.917 31.9591V35.8285H115.396V28.4767H116.917V29.5441Z" fill="#09B782"/>
<path d="M112.206 29.7176V33.7871C112.206 34.0628 112.269 34.263 112.393 34.3875C112.527 34.5032 112.749 34.561 113.06 34.561H113.994V35.8285H112.793C112.109 35.8285 111.584 35.6684 111.219 35.3482C110.854 35.028 110.672 34.5076 110.672 33.7871V29.7176H109.805V28.4767H110.672V26.6487H112.206V28.4767H113.994V29.7176H112.206Z" fill="#09B782"/>
<path d="M105.953 32.1593L109.342 35.8286H107.287L104.565 32.6663V35.8286H103.044V25.9549H104.565V31.6923L107.234 28.4767H109.342L105.953 32.1593Z" fill="#09B782"/>
<path d="M101.547 31.9725C101.547 32.2482 101.529 32.4973 101.494 32.7197H95.8762C95.9207 33.3068 96.1386 33.7782 96.53 34.134C96.9214 34.4898 97.4017 34.6677 97.971 34.6677C98.7894 34.6677 99.3676 34.3253 99.7056 33.6403H101.347C101.124 34.3164 100.72 34.8723 100.133 35.3082C99.5544 35.7351 98.8339 35.9486 97.971 35.9486C97.2683 35.9486 96.6367 35.793 96.0763 35.4816C95.5248 35.1614 95.089 34.7166 94.7688 34.1473C94.4574 33.5692 94.3018 32.902 94.3018 32.1459C94.3018 31.3898 94.453 30.7271 94.7554 30.1579C95.0667 29.5797 95.4982 29.1349 96.0497 28.8236C96.6101 28.5122 97.2505 28.3566 97.971 28.3566C98.6648 28.3566 99.2831 28.5078 99.8257 28.8102C100.368 29.1127 100.791 29.5396 101.093 30.0911C101.396 30.6337 101.547 31.2609 101.547 31.9725ZM99.9591 31.4921C99.9502 30.9317 99.7501 30.4825 99.3587 30.1445C98.9673 29.8065 98.4825 29.6375 97.9043 29.6375C97.3795 29.6375 96.9303 29.8065 96.5567 30.1445C96.1831 30.4736 95.9607 30.9228 95.8895 31.4921H99.9591Z" fill="#09B782"/>
<path d="M92.8116 25.9549V35.8286H91.2905V25.9549H92.8116Z" fill="#09B782"/>
<path d="M85.8145 27.7828V30.5048H89.0168V31.7456H85.8145V34.5877H89.4171V35.8285H84.2935V26.542H89.4171V27.7828H85.8145Z" fill="#09B782"/>
<defs>
<linearGradient id="paint0_linear_296_6202" x1="43.1235" y1="9.09049" x2="52.4122" y2="9.09049" gradientUnits="userSpaceOnUse">
<stop stop-color="#DC554D"/>
<stop offset="1" stop-color="#D32B20"/>
</linearGradient>
<linearGradient id="paint1_linear_296_6202" x1="54.6475" y1="5.69689" x2="63.9361" y2="5.69689" gradientUnits="userSpaceOnUse">
<stop stop-color="#DC554D"/>
<stop offset="1" stop-color="#D32B20"/>
</linearGradient>
<linearGradient id="paint2_linear_296_6202" x1="35.3267" y1="2.76837" x2="41.5129" y2="2.76837" gradientUnits="userSpaceOnUse">
<stop stop-color="#DC554D"/>
<stop offset="1" stop-color="#D32B20"/>
</linearGradient>
</defs>
</svg>
